<svg width="323" height="259" viewBox="0 0 323 259" fill="none" xmlns="http://www.w3.org/2000/svg">
<path fill-rule="evenodd" clip-rule="evenodd" d="M255.339 179.434C239.074 198.025 231.325 222.839 210.546 236.178C187.331 251.08 160.076 262.434 132.879 258.047C105.083 253.563 85.4045 231.072 64.1875 212.568C39.6642 191.182 1.16675 174.752 0.0244209 142.186C-1.12861 109.316 38.8352 92.0572 59.0494 66.0916C75.5615 44.8815 82.9234 14.9452 107.507 4.1228C132.053 -6.68322 159.124 6.7601 185.674 10.3474C215.03 14.3137 246.776 9.01908 270.9 26.199C297.829 45.3772 326.075 75.0049 322.729 107.953C319.338 141.344 277.443 154.17 255.339 179.434Z" fill="#EC4242"/>
</svg>
