<svg width="275" height="247" viewBox="0 0 275 247" fill="none" xmlns="http://www.w3.org/2000/svg">
<path fill-rule="evenodd" clip-rule="evenodd" d="M154.9 15.3824C179.965 19.8347 206.019 20.03 226.87 34.653C247.956 49.4407 262.749 71.6587 270.291 96.3066C277.742 120.66 275.744 146.401 268.537 170.828C261.162 195.825 250.959 221.984 229.055 236.063C207.613 249.845 179.993 248.286 154.9 243.868C132.973 240.007 117.986 221.743 97.5446 212.908C68.236 200.24 27.7017 207.493 9.6863 181.103C-8.38382 154.632 2.70271 118.033 11.7883 87.2867C21.0816 55.8368 32.3615 20.0098 61.6351 5.30174C90.2847 -9.0928 123.339 9.77618 154.9 15.3824Z" fill="#EC4242"/>
</svg>
