<svg width="180" height="30" viewBox="0 0 180 30" fill="none" xmlns="http://www.w3.org/2000/svg">
<path d="M19.2146 2.91102V22.3225H17.2453V6.82145L10.3247 22.3225H8.8899L1.96928 6.87772V22.3225H0V2.91102H2.08181L9.59321 19.7343L17.1046 2.91102H19.2146Z" fill="#EC4242"/>
<path d="M22.7817 14.6142C22.7817 13.0388 23.0911 11.6603 23.7101 10.4787C24.3477 9.27837 25.2198 8.35937 26.3264 7.72169C27.4517 7.06527 28.7177 6.73705 30.1243 6.73705C31.5872 6.73705 32.8438 7.07465 33.894 7.74983C34.9631 8.42501 35.732 9.28774 36.2009 10.338V6.96212H38.1702V22.3225H36.2009V18.9185C35.7133 19.9687 34.935 20.8409 33.8659 21.5348C32.8156 22.21 31.559 22.5476 30.0961 22.5476C28.7083 22.5476 27.4517 22.2194 26.3264 21.5629C25.2198 20.9065 24.3477 19.9781 23.7101 18.7778C23.0911 17.5775 22.7817 16.1896 22.7817 14.6142ZM36.2009 14.6423C36.2009 13.4045 35.9477 12.3167 35.4413 11.3789C34.935 10.4412 34.241 9.71911 33.3595 9.21272C32.4968 8.70634 31.5403 8.45314 30.49 8.45314C29.4022 8.45314 28.4269 8.69696 27.5642 9.18459C26.7015 9.67222 26.0169 10.3849 25.5105 11.3227C25.0229 12.2417 24.7791 13.3388 24.7791 14.6142C24.7791 15.8708 25.0229 16.9773 25.5105 17.9338C26.0169 18.8716 26.7015 19.5936 27.5642 20.1C28.4269 20.5877 29.4022 20.8315 30.49 20.8315C31.5403 20.8315 32.4968 20.5783 33.3595 20.0719C34.241 19.5655 34.935 18.8434 35.4413 17.9057C35.9477 16.9679 36.2009 15.8801 36.2009 14.6423Z" fill="#EC4242"/>
<path d="M44.6352 9.69098C45.0666 8.73447 45.723 7.99364 46.6045 7.4685C47.5047 6.94336 48.6019 6.68079 49.896 6.68079V8.73447H49.3615C47.9361 8.73447 46.792 9.11895 45.9293 9.8879C45.0666 10.6569 44.6352 11.9416 44.6352 13.7421V22.3225H42.6659V6.96212H44.6352V9.69098Z" fill="#EC4242"/>
<path d="M61.1576 22.3225L54.8278 15.43V22.3225H52.8585V1.50439H54.8278V13.8265L61.0169 6.96212H63.7739L56.4876 14.6142L63.8302 22.3225H61.1576Z" fill="#EC4242"/>
<path d="M80.2728 13.8546C80.2728 14.5298 80.254 15.0455 80.2165 15.4019H67.4725C67.5287 16.5647 67.8101 17.5587 68.3165 18.3839C68.8228 19.2092 69.4886 19.8375 70.3139 20.2688C71.1391 20.6814 72.0393 20.8877 73.0146 20.8877C74.2899 20.8877 75.359 20.5783 76.2217 19.9594C77.1032 19.3405 77.6846 18.5059 77.9659 17.4556H80.0477C79.6726 18.956 78.8662 20.1844 77.6283 21.1409C76.4093 22.0787 74.8714 22.5476 73.0146 22.5476C71.5705 22.5476 70.2764 22.2287 69.1323 21.5911C67.9883 20.9346 67.088 20.0156 66.4316 18.8341C65.7939 17.6337 65.4751 16.2365 65.4751 14.6423C65.4751 13.0481 65.7939 11.6509 66.4316 10.4506C67.0693 9.25023 67.9601 8.33123 69.1042 7.69356C70.2482 7.05589 71.5517 6.73705 73.0146 6.73705C74.4775 6.73705 75.7528 7.05589 76.8406 7.69356C77.9472 8.33123 78.7912 9.19397 79.3726 10.2818C79.9727 11.3508 80.2728 12.5417 80.2728 13.8546ZM78.2754 13.7983C78.2942 12.6543 78.0597 11.679 77.5721 10.8725C77.1032 10.0661 76.4562 9.45654 75.6309 9.04393C74.8057 8.63132 73.9055 8.42501 72.9302 8.42501C71.4673 8.42501 70.2201 8.89389 69.1886 9.83164C68.157 10.7694 67.585 12.0916 67.4725 13.7983H78.2754Z" fill="#EC4242"/>
<path d="M86.4358 8.62194V18.1589C86.4358 19.0966 86.614 19.7437 86.9703 20.1C87.3267 20.4564 87.955 20.6346 88.8552 20.6346H90.6557V22.3225H88.5458C87.1579 22.3225 86.1264 22.0037 85.4512 21.366C84.776 20.7096 84.4384 19.6405 84.4384 18.1589V8.62194H82.3003V6.96212H84.4384V3.10795H86.4358V6.96212H90.6557V8.62194H86.4358Z" fill="#EC4242"/>
<path d="M96.1238 10.338C96.6114 9.3065 97.3804 8.45314 98.4306 7.77796C99.4997 7.08402 100.766 6.73706 102.229 6.73706C103.616 6.73706 104.864 7.06527 105.97 7.72169C107.095 8.35937 107.968 9.27837 108.587 10.4787C109.224 11.6603 109.543 13.0388 109.543 14.6142C109.543 16.1896 109.224 17.5775 108.587 18.7778C107.968 19.9781 107.095 20.9065 105.97 21.5629C104.864 22.2194 103.616 22.5476 102.229 22.5476C100.784 22.5476 99.5278 22.21 98.4588 21.5348C97.3897 20.8409 96.6114 19.9781 96.1238 18.9466V29.5807H94.1826V6.96212H96.1238V10.338ZM107.546 14.6142C107.546 13.3388 107.292 12.2417 106.786 11.3227C106.298 10.3849 105.623 9.67222 104.76 9.18459C103.898 8.69696 102.922 8.45314 101.835 8.45314C100.784 8.45314 99.8185 8.70634 98.937 9.21272C98.0743 9.71911 97.3897 10.4412 96.8833 11.3789C96.377 12.3167 96.1238 13.4045 96.1238 14.6423C96.1238 15.8801 96.377 16.9679 96.8833 17.9057C97.3897 18.8434 98.0743 19.5655 98.937 20.0719C99.8185 20.5783 100.784 20.8315 101.835 20.8315C102.922 20.8315 103.898 20.5877 104.76 20.1C105.623 19.5936 106.298 18.8716 106.786 17.9338C107.292 16.9773 107.546 15.8708 107.546 14.6142Z" fill="white"/>
<path d="M115.136 1.50439V22.3225H113.167V1.50439H115.136Z" fill="white"/>
<path d="M132.902 6.96212V22.3225H130.933V19.6218C130.483 20.5783 129.789 21.3097 128.851 21.8161C127.913 22.3225 126.863 22.5757 125.7 22.5757C123.862 22.5757 122.362 22.013 121.199 20.8877C120.036 19.7437 119.455 18.0932 119.455 15.9364V6.96212H121.396V15.7113C121.396 17.3805 121.808 18.6559 122.634 19.5374C123.478 20.4189 124.622 20.8596 126.066 20.8596C127.548 20.8596 128.729 20.3907 129.611 19.453C130.492 18.5152 130.933 17.1367 130.933 15.3175V6.96212H132.902Z" fill="white"/>
<path d="M142.687 22.5476C140.924 22.5476 139.48 22.1443 138.355 21.3379C137.248 20.5126 136.629 19.3967 136.498 17.9901H138.523C138.617 18.8528 139.02 19.5561 139.733 20.1C140.464 20.6252 141.44 20.8877 142.659 20.8877C143.728 20.8877 144.562 20.6346 145.163 20.1282C145.782 19.6218 146.091 18.9935 146.091 18.2433C146.091 17.7181 145.922 17.2868 145.585 16.9492C145.247 16.6116 144.816 16.349 144.29 16.1615C143.784 15.9552 143.09 15.7395 142.209 15.5144C141.065 15.2143 140.136 14.9143 139.424 14.6142C138.711 14.3141 138.101 13.8734 137.595 13.2919C137.107 12.6918 136.863 11.8947 136.863 10.9007C136.863 10.1505 137.089 9.45654 137.539 8.81887C137.989 8.18119 138.626 7.67481 139.452 7.29971C140.277 6.9246 141.215 6.73706 142.265 6.73706C143.915 6.73706 145.247 7.15904 146.26 8.00302C147.273 8.82824 147.816 9.9723 147.891 11.4352H145.922C145.866 10.535 145.51 9.81288 144.853 9.26899C144.215 8.70634 143.334 8.42501 142.209 8.42501C141.215 8.42501 140.408 8.65945 139.789 9.12832C139.17 9.5972 138.861 10.1786 138.861 10.8725C138.861 11.4727 139.039 11.9697 139.395 12.3636C139.771 12.7387 140.23 13.0388 140.774 13.2638C141.318 13.4701 142.049 13.7046 142.968 13.9671C144.075 14.2672 144.956 14.5579 145.613 14.8392C146.269 15.1206 146.832 15.5332 147.301 16.0771C147.77 16.621 148.013 17.343 148.032 18.2433C148.032 19.0685 147.807 19.8093 147.357 20.4658C146.907 21.1034 146.279 21.6098 145.472 21.9849C144.666 22.36 143.737 22.5476 142.687 22.5476Z" fill="white"/>
<path d="M165.637 13.8546C165.637 14.5298 165.618 15.0455 165.58 15.4019H152.836C152.892 16.5647 153.174 17.5587 153.68 18.3839C154.187 19.2092 154.852 19.8375 155.678 20.2688C156.503 20.6814 157.403 20.8877 158.378 20.8877C159.654 20.8877 160.723 20.5783 161.585 19.9594C162.467 19.3405 163.048 18.5059 163.33 17.4556H165.411C165.036 18.956 164.23 20.1844 162.992 21.1409C161.773 22.0787 160.235 22.5476 158.378 22.5476C156.934 22.5476 155.64 22.2287 154.496 21.5911C153.352 20.9346 152.452 20.0156 151.795 18.8341C151.158 17.6337 150.839 16.2365 150.839 14.6423C150.839 13.0481 151.158 11.6509 151.795 10.4506C152.433 9.25023 153.324 8.33123 154.468 7.69356C155.612 7.05589 156.915 6.73706 158.378 6.73706C159.841 6.73706 161.117 7.05589 162.204 7.69356C163.311 8.33123 164.155 9.19397 164.736 10.2818C165.336 11.3508 165.637 12.5417 165.637 13.8546ZM163.639 13.7983C163.658 12.6543 163.423 11.679 162.936 10.8725C162.467 10.0661 161.82 9.45654 160.995 9.04393C160.169 8.63132 159.269 8.42501 158.294 8.42501C156.831 8.42501 155.584 8.89389 154.552 9.83164C153.521 10.7694 152.949 12.0916 152.836 13.7983H163.639Z" fill="white"/>
<path d="M173.222 0H175.158V11.62H173.222V0Z" fill="#EC4242"/>
<path d="M168.38 6.77832V4.84166H180V6.77832H168.38Z" fill="#EC4242"/>
</svg>
